<svg width="256" height="237" viewBox="0 0 256 237" fill="none" xmlns="http://www.w3.org/2000/svg">
<path d="M254.231 174.096C253.565 171.586 252.487 169.203 251.041 167.046C251.351 165.91 251.588 164.756 251.745 163.589C252.772 156.187 250.205 149.41 245.37 144.167C242.75 141.303 239.942 139.412 236.968 138.251C238.92 129.9 239.908 121.352 239.912 112.775C239.912 108.857 239.691 105.02 239.319 101.24C239.126 99.3521 238.892 97.4689 238.617 95.5915C237.766 90.051 236.502 84.5817 234.838 79.2292C233.746 75.7121 232.484 72.2506 231.055 68.8568C228.913 63.8307 226.412 58.9651 223.572 54.298C221.709 51.1926 219.68 48.1899 217.494 45.303C216.423 43.8451 215.306 42.4216 214.145 41.0347C210.704 36.8531 206.965 32.9263 202.956 29.285C201.625 28.0608 200.256 26.8785 198.85 25.74C197.467 24.5861 196.052 23.4693 194.609 22.3908C191.705 20.229 188.704 18.2009 185.614 16.3128C168.545 5.94544 148.527 0 127.132 0C64.8389 0 14.3522 50.4891 14.3522 112.779C14.3498 121.464 15.3555 130.12 17.3497 138.572C14.6743 139.734 12.1103 141.545 9.73214 144.164C4.89775 149.405 2.33007 156.157 3.3569 163.559C3.51296 164.734 3.74706 165.899 4.0592 167.043C2.61505 169.202 1.53817 171.585 0.872198 174.096C-0.614162 179.745 -0.124903 184.84 1.76401 189.304C-0.289641 195.138 0.223155 201.351 2.89736 206.753C4.84202 210.698 7.62522 213.75 11.0562 216.477C15.1351 219.72 20.2407 222.475 26.3992 225.118C33.7468 228.252 42.7157 231.196 46.7945 232.276C57.3303 235.003 67.4326 236.732 77.6712 236.817C92.2585 236.952 104.821 233.522 113.814 224.744C118.233 225.285 122.681 225.556 127.132 225.554C131.835 225.544 136.533 225.248 141.201 224.668C150.173 233.502 162.784 236.963 177.424 236.824C187.662 236.742 197.764 235.013 208.273 232.282C212.379 231.202 221.344 228.258 228.695 225.124C234.854 222.477 239.959 219.722 244.065 216.485C247.47 213.756 250.251 210.705 252.197 206.76C254.898 201.357 255.384 195.144 253.359 189.31C255.229 184.846 255.716 179.74 254.231 174.096ZM243.777 188.926C245.847 192.854 245.979 197.292 244.153 201.425C241.384 207.689 234.504 212.624 221.143 217.921C212.834 221.216 205.227 223.323 205.16 223.342C194.171 226.192 184.232 227.64 175.628 227.64C161.382 227.64 150.78 223.708 144.057 215.944C132.688 217.881 121.079 217.948 109.689 216.14C102.957 223.775 92.4158 227.64 78.2892 227.64C69.6845 227.64 59.7469 226.192 48.7565 223.342C48.6896 223.323 41.0844 221.216 32.7732 217.921C19.4133 212.624 12.5315 207.693 9.76311 201.425C7.93736 197.292 8.06989 192.854 10.1396 188.926C10.3304 188.561 10.536 188.205 10.7552 187.861C9.51478 185.998 8.68273 183.893 8.31383 181.686C7.94493 179.478 8.04754 177.217 8.61489 175.052C9.43734 171.927 11.1355 169.329 13.4418 167.462C12.3308 165.637 11.6018 163.605 11.299 161.489C10.6351 156.889 12.1623 152.296 15.5971 148.55C18.2725 145.636 22.0541 144.032 26.2406 144.032H26.3521C23.1955 133.914 21.5951 123.374 21.6057 112.775C21.6057 54.9668 68.4706 8.09818 126.287 8.09818C184.103 8.09818 230.968 54.9619 230.968 112.775C230.977 123.403 229.365 133.97 226.188 144.111C226.694 144.062 227.189 144.037 227.676 144.036C231.862 144.036 235.645 145.64 238.318 148.554C241.753 152.296 243.281 156.893 242.616 161.493C242.313 163.608 241.585 165.64 240.475 167.466C242.781 169.332 244.48 171.931 245.302 175.056C245.869 177.221 245.971 179.482 245.603 181.689C245.234 183.897 244.402 186.002 243.161 187.865C243.38 188.205 243.589 188.561 243.777 188.926Z" fill="white"/>
<path d="M243.161 187.865C244.402 186.002 245.234 183.897 245.603 181.69C245.972 179.482 245.869 177.221 245.301 175.056C244.479 171.931 242.78 169.332 240.475 167.466C241.585 165.64 242.314 163.608 242.616 161.493C243.281 156.893 241.754 152.3 238.318 148.554C235.645 145.64 231.862 144.036 227.676 144.036C227.189 144.036 226.694 144.062 226.188 144.111C229.362 133.97 230.97 123.404 230.959 112.778C230.959 54.9682 184.094 8.10083 126.284 8.10083C68.4718 8.10083 21.6019 54.9633 21.6019 112.778C21.5915 123.377 23.1919 133.916 26.3484 144.035H26.2369C22.0503 144.035 18.2688 145.637 15.5945 148.552C12.1598 152.294 10.6313 156.892 11.2965 161.491C11.5996 163.606 12.3285 165.639 13.4393 167.465C11.133 169.33 9.43358 171.929 8.61113 175.054C8.04416 177.219 7.94198 179.481 8.3113 181.689C8.68062 183.897 9.51309 186.002 10.754 187.865C10.5335 188.209 10.3304 188.565 10.1384 188.93C8.06985 192.858 7.93608 197.296 9.76306 201.429C12.5326 207.693 19.412 212.628 32.7731 217.925C41.0807 221.22 48.6896 223.327 48.7565 223.346C59.7456 226.196 69.6844 227.644 78.288 227.644C92.4158 227.644 102.957 223.779 109.689 216.144C121.079 217.951 132.688 217.885 144.057 215.948C150.78 223.712 161.382 227.644 175.628 227.644C184.232 227.644 194.171 226.196 205.159 223.346C205.227 223.327 212.832 221.22 221.143 217.925C234.504 212.628 241.385 207.693 244.153 201.429C245.979 197.296 245.847 192.858 243.777 188.93C243.588 188.562 243.38 188.205 243.161 187.865ZM104.871 204.191C104.292 205.205 103.671 206.194 103.011 207.157C101.271 209.704 98.9818 211.652 96.3249 213.098C91.2465 215.868 84.818 216.835 78.288 216.835C67.9714 216.835 57.3959 214.421 51.4691 212.884C51.1768 212.808 15.135 202.628 19.6981 193.963C20.4661 192.505 21.7295 191.923 23.3211 191.923C29.7459 191.923 41.4448 201.49 46.4712 201.49C47.5959 201.49 48.3886 201.012 48.7119 199.845C50.8547 192.16 16.1445 188.93 19.0677 177.802C19.5829 175.833 20.9826 175.033 22.9495 175.033C31.4441 175.031 50.5091 189.971 54.4963 189.971C54.8022 189.971 55.0215 189.88 55.1404 189.692C55.1577 189.663 55.1751 189.636 55.1912 189.606C57.0627 186.516 55.9888 184.269 43.1677 176.416L41.9365 175.667C27.8273 167.128 17.9244 161.989 23.5552 155.857C24.2043 155.15 25.1233 154.837 26.2394 154.837C27.5622 154.837 29.1625 155.279 30.9276 156.022C38.3792 159.165 48.7069 167.735 53.0211 171.472C53.6997 172.061 54.374 172.656 55.0438 173.256C55.0438 173.256 60.5061 178.937 63.8083 178.937C64.5689 178.937 65.2142 178.637 65.6514 177.896C67.9937 173.948 43.8973 155.688 42.5385 148.153C41.617 143.049 43.1851 140.462 46.0835 140.462C47.4621 140.462 49.1429 141.049 51.0009 142.227C56.7605 145.883 67.881 164.992 71.9523 172.427C73.3173 174.917 75.6472 175.97 77.7467 175.97C81.9122 175.97 85.1686 171.83 78.1282 166.568C67.5465 158.65 71.2599 145.709 76.3099 144.913C76.5254 144.878 76.7434 144.861 76.9601 144.861C81.553 144.861 83.5781 152.774 83.5781 152.774C83.5781 152.774 89.5162 167.685 99.7163 177.878C108.971 187.129 110.264 194.721 104.871 204.191ZM137.855 205.938L137.326 206.001L136.424 206.104C135.95 206.153 135.474 206.2 134.998 206.244L134.533 206.286L134.108 206.322L133.506 206.37L132.841 206.418L132.177 206.462L132.03 206.472C131.856 206.482 131.683 206.493 131.507 206.501L131.285 206.514C131.08 206.525 130.874 206.535 130.666 206.543L129.946 206.574L129.294 206.597L128.858 206.609H128.636C128.5 206.609 128.365 206.617 128.228 206.618H128.013C127.877 206.618 127.742 206.618 127.605 206.624L127.05 206.631H126.276C125.668 206.631 125.061 206.625 124.457 206.613L123.966 206.602C123.826 206.602 123.686 206.595 123.549 206.591L123.029 206.576L122.383 206.551L121.801 206.525L121.651 206.519L121.098 206.49C120.943 206.482 120.79 206.474 120.637 206.463L120.279 206.442C119.829 206.414 119.379 206.382 118.93 206.348L118.459 206.309C118.261 206.294 118.063 206.276 117.866 206.259C117.634 206.239 117.403 206.216 117.171 206.194C116.783 206.158 116.395 206.119 116.008 206.076H115.989C121.65 193.449 118.788 181.654 107.349 170.225C99.8464 162.733 94.8559 151.67 93.8204 149.241C91.7246 142.05 86.178 134.057 76.9663 134.057C76.1872 134.057 75.4094 134.119 74.6402 134.241C70.6047 134.876 67.0771 137.199 64.5602 140.694C61.8401 137.311 59.1969 134.622 56.8063 133.104C53.2019 130.818 49.6049 129.659 46.1008 129.659C41.7272 129.659 37.8181 131.455 35.0931 134.713L35.0237 134.796C34.9717 134.581 34.9222 134.367 34.8714 134.152L34.8652 134.123C34.3465 131.906 33.9111 129.67 33.5597 127.42C33.5597 127.405 33.5597 127.39 33.5522 127.375C33.525 127.205 33.5002 127.034 33.4742 126.865C33.3974 126.362 33.3256 125.858 33.2599 125.354C33.2302 125.124 33.198 124.895 33.1695 124.666L33.0853 123.979C33.058 123.75 33.0357 123.541 33.011 123.323L33.0035 123.269C32.9044 122.377 32.8177 121.485 32.7434 120.591L32.7162 120.248L32.6728 119.663C32.6604 119.503 32.648 119.342 32.6394 119.181C32.6394 119.143 32.6332 119.106 32.6319 119.07C32.6004 118.621 32.5736 118.172 32.5514 117.722C32.539 117.488 32.5267 117.255 32.5167 117.02L32.492 116.406L32.4858 116.22L32.466 115.654L32.4536 115.172C32.4536 114.98 32.4437 114.788 32.4412 114.596C32.4375 114.404 32.4325 114.193 32.4313 113.99C32.4288 113.787 32.4313 113.587 32.4251 113.385C32.4201 113.181 32.4251 112.98 32.4251 112.778C32.4251 60.9372 74.4519 18.9091 126.299 18.9091C178.143 18.9091 220.17 60.9359 220.17 112.778V113.99C220.17 114.192 220.163 114.395 220.16 114.596C220.16 114.763 220.152 114.928 220.147 115.098C220.147 115.246 220.141 115.396 220.136 115.54C220.136 115.729 220.125 115.919 220.119 116.108V116.123L220.093 116.781C220.084 116.973 220.077 117.166 220.067 117.358L220.061 117.494L220.027 118.109C219.954 119.425 219.854 120.74 219.729 122.053V122.069C219.708 122.284 219.687 122.5 219.663 122.715L219.607 123.224L219.497 124.22L219.434 124.724L219.356 125.318C219.327 125.533 219.299 125.75 219.267 125.964C219.234 126.206 219.199 126.446 219.163 126.686L219.077 127.255L218.976 127.899C218.941 128.113 218.904 128.326 218.864 128.539C218.823 128.754 218.791 128.967 218.754 129.18C218.68 129.606 218.602 130.032 218.52 130.457C218.395 131.092 218.267 131.726 218.136 132.36L218 132.988C217.955 133.198 217.907 133.408 217.86 133.618C215.218 131.05 211.718 129.652 207.86 129.652C204.358 129.652 200.758 130.81 197.155 133.095C194.764 134.614 192.122 137.304 189.401 140.685C186.88 137.19 183.353 134.867 179.32 134.232C178.55 134.11 177.772 134.049 176.993 134.049C167.779 134.049 162.236 142.042 160.139 149.232C159.099 151.661 154.107 162.724 146.599 170.228C135.167 181.621 132.284 193.362 137.855 205.938ZM234.767 180.659L234.73 180.769C234.636 181.017 234.527 181.26 234.404 181.496C234.311 181.669 234.211 181.838 234.102 182.001C233.895 182.31 233.668 182.604 233.422 182.882C233.365 182.946 233.31 183.011 233.246 183.074C233.157 183.169 233.066 183.263 232.973 183.355C231.306 185.007 228.765 186.457 225.891 187.786C225.565 187.933 225.234 188.08 224.901 188.229L224.569 188.376C224.348 188.474 224.126 188.571 223.893 188.666C223.671 188.763 223.441 188.859 223.21 188.954L222.519 189.239C220.903 189.904 219.247 190.538 217.632 191.163L216.941 191.432L216.258 191.7C215.803 191.877 215.355 192.054 214.914 192.231L214.256 192.496L213.61 192.76L213.293 192.894C213.081 192.982 212.874 193.07 212.667 193.158C207.915 195.198 204.495 197.272 205.213 199.846C205.233 199.919 205.255 199.989 205.28 200.057C205.344 200.247 205.432 200.427 205.543 200.597C205.607 200.697 205.681 200.792 205.764 200.879C206.609 201.757 208.146 201.619 210.085 200.921C210.357 200.821 210.628 200.717 210.897 200.608L211.066 200.539C211.509 200.35 211.979 200.14 212.458 199.912C212.578 199.855 212.699 199.8 212.821 199.737C215.192 198.578 217.878 197.017 220.544 195.596C221.61 195.021 222.691 194.474 223.786 193.955C226.311 192.767 228.684 191.925 230.591 191.925C231.487 191.925 232.277 192.108 232.936 192.53L233.046 192.603C233.46 192.894 233.807 193.268 234.066 193.701C234.117 193.784 234.166 193.872 234.215 193.963C235.157 195.752 234.368 197.605 232.521 199.423C230.749 201.168 227.992 202.878 224.858 204.461C224.625 204.579 224.392 204.697 224.156 204.812C214.829 209.392 202.614 212.842 202.445 212.885C199.19 213.729 194.535 214.836 189.291 215.665L188.515 215.786L188.388 215.805C187.8 215.894 187.212 215.977 186.623 216.054C186.024 216.134 185.42 216.207 184.812 216.275L184.7 216.288C182.495 216.542 180.281 216.71 178.064 216.791H178.031C177.229 216.819 176.427 216.834 175.625 216.834H174.699C173.476 216.818 172.254 216.762 171.034 216.668C171.006 216.668 170.975 216.668 170.946 216.661C170.057 216.589 169.169 216.494 168.285 216.374C167.989 216.335 167.693 216.29 167.399 216.242C167.099 216.194 166.8 216.144 166.501 216.092L166.093 216.015L166.062 216.009C165.633 215.927 165.205 215.837 164.779 215.738C164.531 215.682 164.285 215.628 164.041 215.561L163.894 215.524C163.772 215.494 163.655 215.462 163.534 215.429L163.469 215.412L163.087 215.301C162.948 215.262 162.81 215.22 162.671 215.179L162.623 215.166L162.262 215.055C162.126 215.013 161.99 214.969 161.855 214.924L161.523 214.814L161.279 214.728C161.043 214.645 160.809 214.56 160.578 214.471L160.357 214.384L160.175 214.312C159.823 214.171 159.474 214.023 159.129 213.869L158.899 213.757L158.861 213.74C158.779 213.702 158.699 213.663 158.617 213.63C158.457 213.553 158.299 213.474 158.141 213.393L158.093 213.37L157.865 213.249C157.461 213.038 157.064 212.812 156.675 212.573L156.462 212.442C156.355 212.376 156.249 212.308 156.145 212.239L155.867 212.055L155.569 211.85L155.39 211.722C155.202 211.588 155.018 211.45 154.837 211.307L154.548 211.086C154.433 210.993 154.319 210.899 154.206 210.803C154.111 210.725 154.018 210.643 153.925 210.562L153.918 210.555C153.817 210.467 153.719 210.379 153.622 210.289C153.525 210.201 153.429 210.112 153.334 210.022L153.323 210.01C153.224 209.916 153.127 209.821 153.032 209.723C152.937 209.626 152.839 209.53 152.746 209.431C152.653 209.333 152.558 209.233 152.466 209.13C152.374 209.028 152.29 208.935 152.203 208.835L152.175 208.801C152.09 208.705 152.007 208.606 151.926 208.507C151.748 208.295 151.577 208.078 151.411 207.856C151.243 207.633 151.08 207.406 150.92 207.174L150.768 206.946C150.565 206.649 150.366 206.349 150.174 206.044C150.031 205.825 149.891 205.604 149.755 205.38C149.667 205.24 149.582 205.099 149.498 204.96L149.464 204.904C149.383 204.767 149.304 204.633 149.227 204.498C149.182 204.426 149.14 204.352 149.101 204.277C149.06 204.2 149.013 204.122 148.969 204.044L148.899 203.921L148.855 203.842C148.772 203.693 148.691 203.543 148.611 203.392C148.574 203.325 148.538 203.259 148.5 203.194L148.39 202.98L148.278 202.768C147.999 202.211 147.736 201.646 147.488 201.074L147.4 200.864C147.343 200.724 147.29 200.586 147.233 200.448C147.205 200.381 147.178 200.316 147.155 200.249C146.745 199.187 146.424 198.094 146.194 196.98C146.18 196.912 146.166 196.844 146.155 196.778C146.091 196.447 146.038 196.114 145.998 195.78C145.988 195.714 145.98 195.648 145.973 195.583L145.952 195.382C145.924 195.119 145.904 194.856 145.891 194.592C145.891 194.525 145.885 194.458 145.883 194.394C145.877 194.262 145.874 194.131 145.873 194C145.803 188.707 148.481 183.619 154.207 177.895C164.408 167.705 170.346 152.793 170.346 152.793C170.346 152.793 170.505 152.167 170.837 151.267C170.883 151.142 170.932 151.013 170.986 150.878C171.179 150.374 171.397 149.878 171.639 149.395L171.687 149.303C171.893 148.891 172.118 148.49 172.361 148.1C172.418 148.009 172.472 147.92 172.536 147.83C172.718 147.561 172.91 147.298 173.111 147.044C173.222 146.907 173.342 146.771 173.462 146.638C173.51 146.586 173.557 146.534 173.608 146.485C174.199 145.874 174.874 145.376 175.638 145.111L175.735 145.079C175.799 145.058 175.864 145.038 175.929 145.019C176.005 145 176.081 144.982 176.159 144.966L176.194 144.959C176.355 144.926 176.519 144.905 176.684 144.894H176.697C176.783 144.894 176.87 144.886 176.957 144.886C177.068 144.886 177.17 144.886 177.278 144.897C177.39 144.907 177.5 144.919 177.611 144.936C178.531 145.082 179.405 145.63 180.158 146.475C180.444 146.797 180.702 147.144 180.927 147.51C181.076 147.748 181.216 147.999 181.348 148.265C181.402 148.375 181.452 148.476 181.502 148.585C181.631 148.865 181.747 149.151 181.849 149.441C182.09 150.122 182.272 150.824 182.393 151.537C182.497 152.163 182.559 152.794 182.578 153.427C182.588 153.765 182.588 154.108 182.578 154.454C182.511 156.062 182.182 157.649 181.604 159.151C181.552 159.288 181.493 159.427 181.438 159.566C181.324 159.845 181.199 160.12 181.064 160.39C180.963 160.594 180.858 160.8 180.744 161.004C180.67 161.14 180.592 161.276 180.514 161.413C180.314 161.752 180.099 162.089 179.867 162.425L179.727 162.625C179.18 163.388 178.57 164.104 177.904 164.766C177.247 165.423 176.544 166.031 175.799 166.586C175.054 167.139 174.354 167.751 173.707 168.416C171.846 170.369 171.412 172.093 171.831 173.4C171.898 173.606 171.986 173.805 172.092 173.993C172.217 174.209 172.366 174.407 172.534 174.588L172.6 174.656L172.667 174.723C172.734 174.787 172.804 174.851 172.88 174.912L172.954 174.972C173.134 175.111 173.325 175.235 173.524 175.344C173.582 175.374 173.634 175.405 173.7 175.435C173.915 175.54 174.137 175.631 174.365 175.704C174.428 175.725 174.491 175.744 174.556 175.763L174.636 175.784L174.748 175.814L174.843 175.838L174.947 175.86L175.05 175.881L175.148 175.897C175.22 175.91 175.294 175.922 175.368 175.931L175.439 175.942L175.568 175.954L175.647 175.963L175.777 175.972H175.854L175.99 175.979H176.419L176.541 175.972L176.682 175.963L176.855 175.947L177.016 175.928C177.053 175.928 177.09 175.918 177.127 175.911C177.623 175.839 178.108 175.708 178.573 175.519L178.77 175.436C179.104 175.292 179.424 175.118 179.726 174.915C180.009 174.729 180.277 174.521 180.527 174.292C180.587 174.239 180.645 174.182 180.702 174.127C180.73 174.1 180.758 174.074 180.785 174.044C180.839 173.988 180.895 173.934 180.95 173.873C181.346 173.437 181.689 172.957 181.971 172.44C184.395 168.032 186.936 163.69 189.59 159.417L189.954 158.834L190.322 158.25C190.506 157.954 190.691 157.663 190.876 157.373L191.062 157.084C191.679 156.117 192.305 155.158 192.943 154.205L193.321 153.64C194.079 152.517 194.835 151.424 195.584 150.386L195.957 149.872C196.772 148.749 197.62 147.649 198.501 146.576L198.85 146.158C198.908 146.088 198.962 146.019 199.025 145.952C199.14 145.816 199.255 145.683 199.368 145.554C199.425 145.489 199.478 145.424 199.539 145.36L199.871 144.986L200.037 144.804C200.204 144.624 200.368 144.452 200.529 144.287C200.64 144.176 200.743 144.066 200.849 143.962C201.477 143.319 202.17 142.744 202.917 142.245L203.09 142.133C203.256 142.022 203.428 141.918 203.604 141.824C206.532 140.161 208.956 140.039 210.352 141.435C211.197 142.279 211.665 143.68 211.639 145.63C211.639 145.715 211.639 145.802 211.633 145.891V145.987C211.633 146.076 211.626 146.165 211.618 146.255C211.618 146.367 211.606 146.477 211.595 146.589C211.583 146.699 211.577 146.783 211.566 146.882C211.566 146.909 211.561 146.938 211.556 146.968C211.549 147.053 211.538 147.141 211.525 147.229C211.525 147.255 211.525 147.282 211.515 147.31C211.502 147.427 211.485 147.544 211.465 147.66C211.451 147.772 211.432 147.876 211.412 147.985L211.38 148.169C211.348 148.345 211.307 148.518 211.256 148.689C211.16 149.01 211.043 149.323 210.906 149.628C210.714 150.046 210.502 150.454 210.269 150.851C210.14 151.071 210.008 151.288 209.87 151.502C209.729 151.724 209.581 151.948 209.427 152.175C209.036 152.735 208.629 153.283 208.207 153.82L208.014 154.064C207.325 154.923 206.614 155.763 205.881 156.584L205.649 156.845C205.337 157.193 205.02 157.543 204.695 157.895L204.451 158.16C204.289 158.337 204.119 158.514 203.956 158.693C203.794 158.87 203.624 159.049 203.453 159.229L202.944 159.765L202.427 160.305L201.907 160.845C201.558 161.207 201.207 161.569 200.854 161.93C195.832 167.082 190.54 172.216 188.749 175.417C188.63 175.625 188.521 175.839 188.425 176.059C188.17 176.642 188.063 177.14 188.136 177.542C188.159 177.674 188.206 177.801 188.274 177.917C188.374 178.092 188.497 178.253 188.639 178.397C188.705 178.461 188.774 178.521 188.847 178.575C189.216 178.838 189.661 178.973 190.114 178.96H190.255L190.4 178.949L190.545 178.933L190.665 178.916C190.681 178.913 190.699 178.911 190.715 178.906L190.825 178.885L190.854 178.879L190.976 178.853L191.02 178.841L191.148 178.807C191.192 178.794 191.251 178.778 191.303 178.761C191.521 178.695 191.734 178.617 191.944 178.528C192.054 178.483 192.162 178.435 192.268 178.383C192.324 178.358 192.38 178.332 192.432 178.305L192.598 178.223C192.994 178.018 193.38 177.794 193.757 177.553L193.922 177.442C193.978 177.407 194.033 177.371 194.087 177.332L194.251 177.221L194.339 177.161L194.577 176.993C194.799 176.841 195.006 176.684 195.215 176.524L195.233 176.509L195.567 176.251C196.021 175.892 196.452 175.531 196.844 175.19L197.104 174.962L197.127 174.94L197.264 174.82C197.583 174.532 197.868 174.265 198.105 174.044L198.202 173.949C198.288 173.868 198.366 173.793 198.437 173.728L198.575 173.591L198.625 173.543L198.638 173.529L198.783 173.384L198.875 173.289L198.886 173.28L198.93 173.24L198.984 173.191L199.001 173.175L199.047 173.133L199.3 172.911L199.441 172.785C199.517 172.719 199.59 172.652 199.663 172.584L199.831 172.434C199.862 172.409 199.892 172.382 199.923 172.355L200.1 172.2L200.36 171.971L200.499 171.851C201.038 171.382 201.693 170.816 202.446 170.178L202.754 169.917L203.264 169.49L203.785 169.055C204.466 168.489 205.2 167.888 205.975 167.265L206.484 166.856C206.918 166.511 207.362 166.159 207.813 165.805C207.995 165.662 208.18 165.52 208.368 165.379C209.894 164.192 211.448 163.04 213.028 161.925L213.503 161.593C213.837 161.364 214.168 161.134 214.5 160.91L214.801 160.707C215.395 160.304 215.997 159.911 216.604 159.529L216.905 159.339L217.203 159.153C217.503 158.968 217.8 158.785 218.096 158.608L218.392 158.431L218.984 158.087L219.565 157.754L219.683 157.689L220.142 157.437C220.334 157.333 220.525 157.232 220.716 157.134L221 156.988L221.276 156.849C221.372 156.804 221.468 156.755 221.562 156.71C222.351 156.321 223.159 155.971 223.982 155.663L224.49 155.485C224.642 155.434 224.791 155.385 224.933 155.342L224.983 155.327C225.06 155.302 225.137 155.28 225.212 155.26L225.234 155.254C225.393 155.208 225.55 155.169 225.705 155.132H225.716C226.155 155.026 226.601 154.95 227.05 154.905C227.257 154.884 227.464 154.873 227.672 154.874H227.776C227.915 154.874 228.049 154.883 228.181 154.896C228.242 154.896 228.303 154.909 228.362 154.916H228.387C228.446 154.923 228.506 154.932 228.565 154.946C228.623 154.957 228.683 154.967 228.74 154.98H228.758C228.817 154.993 228.869 155.008 228.929 155.025C229.244 155.113 229.544 155.249 229.819 155.428C229.954 155.515 230.08 155.615 230.196 155.725L230.23 155.757C230.252 155.777 230.273 155.797 230.293 155.819L230.354 155.885C230.852 156.406 231.263 157.004 231.572 157.656L231.62 157.767C231.837 158.265 231.954 158.8 231.963 159.343C231.972 159.886 231.873 160.425 231.672 160.93C231.557 161.236 231.416 161.532 231.252 161.815C230.867 162.464 230.41 163.067 229.89 163.614L229.78 163.731C229.615 163.905 229.445 164.078 229.265 164.252C229.186 164.33 229.103 164.406 229.02 164.484L228.766 164.719L228.633 164.836C228.119 165.292 227.588 165.729 227.042 166.145C226.316 166.7 225.576 167.235 224.823 167.752C224.368 168.064 223.91 168.371 223.448 168.672C222.31 169.419 221.16 170.147 219.997 170.856C217.56 172.355 214.858 173.957 211.979 175.7L211.233 176.152C210.417 176.65 209.646 177.126 208.92 177.579L208.555 177.808L207.864 178.252C207.406 178.545 206.948 178.841 206.491 179.137L206.124 179.38C205.944 179.497 205.766 179.616 205.587 179.734L205.413 179.846L204.877 180.206L204.594 180.401L204.262 180.631L203.953 180.846C203.437 181.211 202.956 181.559 202.514 181.89L202.348 182.016C202.088 182.213 201.83 182.414 201.577 182.618C201.194 182.926 200.844 183.221 200.531 183.505L200.378 183.645C200.29 183.725 200.203 183.806 200.12 183.885C200.063 183.941 200.01 183.997 199.95 184.05L199.871 184.129C199.694 184.308 199.52 184.49 199.353 184.677L199.271 184.771C199.089 184.981 198.931 185.183 198.792 185.38L198.73 185.468C198.621 185.627 198.521 185.79 198.43 185.959C198.407 186.001 198.386 186.043 198.365 186.085L198.304 186.211L198.263 186.303L198.237 186.365L198.216 186.421L198.188 186.496C198.111 186.706 198.057 186.923 198.027 187.144L198.017 187.221L198.009 187.293V187.683C198.009 187.715 198.009 187.747 198.018 187.782L198.024 187.841C198.024 187.874 198.032 187.905 198.037 187.939C198.041 187.971 198.05 188.03 198.06 188.075V188.082C198.069 188.125 198.077 188.167 198.089 188.21C198.1 188.254 198.111 188.303 198.124 188.348C198.148 188.436 198.178 188.523 198.209 188.609C198.229 188.661 198.247 188.712 198.268 188.763C198.268 188.773 198.276 188.784 198.281 188.794L198.325 188.894L198.387 189.032C198.454 189.174 198.527 189.313 198.606 189.448L198.688 189.589L198.772 189.73C198.787 189.754 198.804 189.776 198.823 189.797L198.85 189.826L198.881 189.854L198.913 189.879C198.96 189.912 199.011 189.938 199.065 189.957C199.093 189.967 199.123 189.974 199.153 189.982C199.867 190.143 201.336 189.552 203.288 188.521C203.399 188.462 203.52 188.4 203.638 188.336L204.232 188.011L204.522 187.85C204.729 187.74 204.939 187.615 205.155 187.492L205.548 187.27C208.128 185.785 211.209 183.878 214.395 182.015C214.694 181.84 214.993 181.666 215.293 181.493L215.895 181.108C216.594 180.708 217.296 180.313 218.001 179.923C218.889 179.434 219.784 178.959 220.686 178.498L221.276 178.2C221.667 178.007 222.055 177.818 222.438 177.635C223.179 177.283 223.928 176.949 224.686 176.633L225.101 176.464L225.15 176.445C227.349 175.574 229.342 175.036 230.954 175.036C231.302 175.033 231.652 175.062 231.995 175.122H232.006C232.116 175.142 232.217 175.164 232.319 175.189H232.338C232.602 175.256 232.858 175.351 233.101 175.474C233.442 175.649 233.748 175.884 234.006 176.166C234.125 176.297 234.231 176.44 234.323 176.591C234.497 176.857 234.633 177.146 234.731 177.448C234.771 177.566 234.805 177.681 234.841 177.803C235.102 178.741 235.077 179.736 234.767 180.659Z" fill="#FF9D00"/>
<path fill-rule="evenodd" clip-rule="evenodd" d="M220.155 113.384V112.776C220.155 60.9345 178.143 18.9089 126.297 18.9089C74.4532 18.9089 32.4252 60.937 32.4252 112.776V112.979C32.4221 113.114 32.4221 113.249 32.4252 113.384C32.4314 113.586 32.4339 113.788 32.4314 113.99L32.4376 114.436L32.4413 114.596C32.4413 114.67 32.4438 114.743 32.4462 114.818C32.45 114.935 32.4524 115.054 32.4524 115.172L32.4661 115.654L32.4859 116.22L32.4921 116.405L32.5168 116.991V117.02C32.5268 117.249 32.5391 117.477 32.5503 117.705L32.5515 117.722C32.5639 117.955 32.5763 118.189 32.5912 118.423C32.6035 118.639 32.6159 118.854 32.632 119.07L32.6345 119.108C32.6457 119.293 32.658 119.478 32.6717 119.663L32.6754 119.713L32.7163 120.248L32.72 120.282C32.7274 120.386 32.7348 120.49 32.7447 120.591C32.8191 121.484 32.9058 122.377 33.0049 123.267L33.0098 123.323L33.0854 123.978L33.1696 124.666L33.2315 125.133L33.26 125.352C33.3257 125.857 33.3975 126.362 33.4743 126.864L33.4793 126.898L33.5523 127.374C33.9053 129.639 34.3451 131.891 34.8653 134.124L34.8715 134.151L34.9111 134.319L35.0238 134.795L35.0932 134.712C37.8182 131.455 41.7273 129.659 46.1009 129.659C49.6063 129.659 53.202 130.818 56.8064 133.103C59.197 134.622 61.8402 137.311 64.5603 140.694C67.0772 137.198 70.6048 134.875 74.6403 134.241C75.4095 134.119 76.1886 134.058 76.9664 134.057C86.1769 134.057 91.7247 142.05 93.8205 149.24C94.856 151.669 99.8464 162.733 107.372 170.217C118.812 181.645 121.675 193.438 116.013 206.066H116.033C116.418 206.11 116.806 206.149 117.196 206.185C117.428 206.208 117.658 206.23 117.891 206.25L117.973 206.257L118.484 206.3L118.955 206.338C119.403 206.372 119.853 206.405 120.304 206.433L120.662 206.454L120.945 206.471L121.121 206.481L121.675 206.51L121.826 206.516L122.407 206.542L123.053 206.567L123.572 206.582L123.659 206.584C123.769 206.589 123.88 206.593 123.99 206.593L124.109 206.596C124.84 206.614 125.569 206.623 126.3 206.621H127.075L127.629 206.615C127.765 206.609 127.9 206.609 128.038 206.609H128.253L128.44 206.604C128.513 206.601 128.586 206.599 128.661 206.599H128.882L129.317 206.588L129.971 206.566L130.691 206.533C130.899 206.526 131.105 206.515 131.31 206.505L131.532 206.491L131.861 206.474L132.055 206.463L132.201 206.453L132.866 206.409L133.53 206.361L134.133 206.313L134.557 206.277L135.022 206.235C135.8 206.165 136.576 206.084 137.351 205.991L137.88 205.928C132.307 193.353 135.192 181.611 146.584 170.228C154.094 162.724 159.084 151.661 160.125 149.23C162.222 142.041 167.766 134.049 176.979 134.049C177.758 134.049 178.537 134.11 179.306 134.232C183.338 134.866 186.865 137.19 189.386 140.685C192.107 137.304 194.749 134.612 197.141 133.094C200.744 130.81 204.344 129.65 207.845 129.65C211.705 129.65 215.203 131.05 217.845 133.617C217.893 133.408 217.94 133.199 217.986 132.988L218.121 132.362C218.169 132.132 218.218 131.903 218.263 131.674C218.345 131.269 218.427 130.864 218.505 130.455C218.587 130.032 218.665 129.606 218.739 129.179L218.777 128.949C218.801 128.813 218.823 128.677 218.849 128.539C218.891 128.326 218.926 128.113 218.961 127.897L218.974 127.816L219.062 127.255L219.149 126.686V126.681C219.212 126.261 219.272 125.841 219.327 125.421L219.341 125.317L219.419 124.725L219.482 124.22L219.594 123.224L219.637 122.824L219.648 122.715C219.672 122.5 219.694 122.284 219.714 122.068V122.051C219.73 121.88 219.747 121.708 219.762 121.536C219.85 120.56 219.924 119.579 219.984 118.594C219.995 118.433 220.004 118.271 220.014 118.109V118.101L220.046 117.493L220.053 117.357C220.073 116.945 220.09 116.534 220.104 116.123V116.108L220.11 115.947C220.116 115.812 220.121 115.676 220.121 115.54L220.124 115.485C220.129 115.358 220.134 115.226 220.134 115.096L220.138 114.985C220.141 114.855 220.145 114.726 220.145 114.596L220.147 114.486C220.151 114.321 220.155 114.155 220.155 113.99V113.384ZM103.015 207.156C110.449 196.255 109.921 188.073 99.7226 177.879C89.5212 167.684 83.5844 152.775 83.5844 152.775C83.5844 152.775 81.3685 144.116 76.3149 144.911C71.2613 145.707 67.554 158.647 78.1357 166.568C88.7161 174.489 76.03 179.859 71.9574 172.426C67.8848 164.992 56.7656 145.884 51.001 142.228C45.2364 138.573 41.1823 140.622 42.5411 148.155C43.2162 151.895 49.4935 158.277 55.3585 164.24C61.3089 170.29 66.8344 175.908 65.6527 177.896C63.308 181.844 55.0501 173.257 55.0501 173.257C55.0501 173.257 29.1924 149.726 23.564 155.858C18.3741 161.51 26.3769 166.315 38.7088 173.721C39.7567 174.35 40.8367 174.999 41.9428 175.668C56.0521 184.209 57.1495 186.463 55.1467 189.694C54.4072 190.888 49.6843 188.053 43.8751 184.566C33.9722 178.619 20.9146 170.78 19.0702 177.797C17.4749 183.87 27.0817 187.591 35.7943 190.966C43.0527 193.778 49.6917 196.349 48.7144 199.84C47.7025 203.459 42.2166 200.44 36.2204 197.141C29.4884 193.436 22.1123 189.378 19.6982 193.957C15.1363 202.616 51.1719 212.808 51.4692 212.884C63.1123 215.904 92.681 222.302 103.015 207.156ZM150.907 207.156C143.472 196.255 144 188.073 154.2 177.879C164.4 167.684 170.337 152.775 170.337 152.775C170.337 152.775 172.553 144.116 177.607 144.911C182.66 145.707 186.367 158.647 175.787 166.568C165.205 174.489 177.891 179.859 181.964 172.426C186.038 164.992 197.15 145.884 202.914 142.228C208.679 138.573 212.735 140.622 211.375 148.155C210.702 151.895 204.423 158.277 198.558 164.241C192.608 170.291 187.082 175.908 188.263 177.896C190.607 181.844 198.871 173.252 198.871 173.252C198.871 173.252 224.728 149.722 230.359 155.855C235.547 161.505 227.545 166.311 215.211 173.717C214.133 174.365 213.055 175.014 211.979 175.664C197.869 184.206 196.772 186.459 198.774 189.689C199.514 190.884 204.237 188.048 210.045 184.561C219.949 178.616 233.007 170.775 234.851 177.793C236.448 183.866 226.84 187.587 218.127 190.962C210.869 193.774 204.23 196.346 205.206 199.836C206.217 203.454 211.701 200.436 217.696 197.136C224.428 193.431 231.805 189.371 234.218 193.954C238.781 202.617 202.74 212.8 202.449 212.874C190.805 215.904 161.237 222.302 150.907 207.156Z" fill="#FFD21E"/>
<path fill-rule="evenodd" clip-rule="evenodd" d="M156.783 87.227C158.247 87.7448 159.335 89.3203 160.371 90.8203C161.771 92.8467 163.074 94.7331 165.073 93.6704C166.688 92.811 168.111 91.6326 169.257 90.2067C170.403 88.7808 171.248 87.137 171.74 85.375C172.232 83.6129 172.361 81.7694 172.119 79.9561C171.877 78.1427 171.27 76.3974 170.333 74.8258C169.31 73.1108 167.919 71.6439 166.261 70.5307C164.603 69.4174 162.719 68.6854 160.744 68.3874C157.766 67.939 154.724 68.4986 152.101 69.9773C149.477 71.4561 147.423 73.769 146.265 76.5487C145.497 78.3921 145.147 80.3829 145.241 82.3777C145.334 84.3725 145.868 86.3218 146.805 88.0854C147.732 89.8281 149.788 89.0057 151.958 88.1374C153.659 87.4574 155.431 86.7489 156.783 87.227ZM93.1478 87.227C91.6838 87.7448 90.595 89.3215 89.5595 90.8203C88.1599 92.8479 86.8556 94.7331 84.8577 93.6704C81.895 92.0976 79.6236 89.4786 78.4858 86.3232C77.348 83.1678 77.4251 79.7019 78.7022 76.6003C79.9793 73.4987 82.3649 70.9833 85.3947 69.5439C88.4244 68.1046 91.8813 67.8442 95.0925 68.8135C97.6499 69.5839 99.9216 71.095 101.621 73.1558C103.32 75.2167 104.37 77.7348 104.639 80.3922C104.906 83.0497 104.38 85.7269 103.126 88.0854C102.199 89.8281 100.142 89.0057 97.9723 88.1386C96.2704 87.4574 94.5004 86.7489 93.1478 87.227ZM146.938 145.134C157.024 137.188 160.729 124.215 160.729 116.223C160.729 109.906 156.479 111.894 149.675 115.263L149.291 115.453C143.046 118.546 134.732 122.664 125.606 122.664C116.479 122.664 108.165 118.546 101.921 115.452C94.8968 111.972 90.491 109.79 90.491 116.225C90.491 124.469 94.4323 138.006 105.251 145.87C106.679 142.973 108.689 140.401 111.156 138.315C113.623 136.23 116.493 134.675 119.588 133.749C120.668 133.427 121.78 135.286 122.918 137.19C124.017 139.025 125.14 140.903 126.283 140.903C127.5 140.903 128.695 139.053 129.863 137.247C131.083 135.358 132.274 133.518 133.424 133.886C139.215 135.745 144.059 139.777 146.938 145.134Z" fill="#32343D"/>
<path d="M146.936 145.133C141.682 149.273 134.7 152.048 125.607 152.048C117.065 152.048 110.383 149.598 105.251 145.869C106.679 142.971 108.689 140.399 111.156 138.314C113.622 136.228 116.493 134.674 119.588 133.748C121.708 133.115 123.956 140.902 126.283 140.902C128.772 140.902 131.171 133.165 133.424 133.885C139.214 135.745 144.057 139.777 146.936 145.133Z" fill="#FF323D"/>
<path fill-rule="evenodd" clip-rule="evenodd" d="M69.0293 98.4653C67.8293 99.2683 66.4495 99.7626 65.0126 99.9041C63.5756 100.046 62.126 99.8301 60.7924 99.2766C59.7259 98.8369 58.757 98.1906 57.9413 97.375C57.1257 96.5593 56.4794 95.5904 56.0397 94.5239C55.487 93.1901 55.2721 91.7403 55.414 90.3035C55.556 88.8666 56.0504 87.487 56.8535 86.287C57.5751 85.2086 58.5268 84.3035 59.6401 83.637C60.7534 82.9705 62.0006 82.5591 63.292 82.4324C64.5834 82.3057 65.8868 82.4668 67.1084 82.9042C68.33 83.3417 69.4395 84.0445 70.3569 84.9621C71.2744 85.8797 71.977 86.9893 72.4141 88.211C72.8513 89.4328 73.0122 90.7362 72.8852 92.0276C72.7583 93.3189 72.3466 94.5661 71.6799 95.6792C71.0131 96.7924 70.1078 97.7439 69.0293 98.4653ZM194.643 98.4653C193.443 99.2684 192.063 99.7626 190.625 99.9041C189.188 100.046 187.738 99.8301 186.405 99.2766C185.338 98.8368 184.369 98.1905 183.554 97.3748C182.738 96.5592 182.092 95.5903 181.652 94.5239C181.101 93.1898 180.886 91.7405 181.028 90.3039C181.164 88.9398 181.616 87.6264 182.35 86.4683C183.083 85.3103 184.077 84.3397 185.253 83.6339C186.931 82.6269 188.899 82.2104 190.842 82.4506C192.784 82.6907 194.591 83.5738 195.974 84.9592C197.203 86.1863 198.04 87.7506 198.379 89.4538C198.717 91.1571 198.543 92.9226 197.877 94.5264C197.212 96.1302 196.086 97.5009 194.643 98.4653Z" fill="#FFAD03"/>
</svg>
