<svg width="112" height="113" viewBox="0 0 112 113" fill="none" xmlns="http://www.w3.org/2000/svg">
<path d="M54.9186 0.000814197C50.3346 0.0228142 45.9576 0.413814 42.1056 1.09581C30.7596 3.09981 28.6996 7.29581 28.6996 15.0328V25.2518H55.5126V28.6578H18.6376C10.8446 28.6578 4.0216 33.3418 1.8876 42.2518C-0.574404 52.4648 -0.683404 58.8378 1.8876 69.5018C3.7926 77.4398 8.3446 83.0958 16.1376 83.0958H25.3556V70.8458C25.3556 61.9958 33.0126 54.1888 42.1056 54.1888H68.8876C76.3416 54.1888 82.2936 48.0508 82.2936 40.5638V15.0338C82.2936 7.76681 76.1636 2.30781 68.8876 1.09581C64.2816 0.328814 59.5026 -0.0191858 54.9186 0.000814197ZM40.4186 8.22081C43.1886 8.22081 45.4496 10.5188 45.4496 13.3458C45.4496 16.1618 43.1876 18.4388 40.4186 18.4388C37.6386 18.4388 35.3876 16.1618 35.3876 13.3458C35.3876 10.5188 37.6396 8.22081 40.4186 8.22081Z" fill="url(#paint0_linear_18_21)"/>
<path d="M85.6376 28.6577V40.5637C85.6376 49.7947 77.8116 57.5637 68.8876 57.5637H42.1056C34.7696 57.5637 28.6996 63.8427 28.6996 71.1887V96.7207C28.6996 103.987 35.0186 108.261 42.1056 110.346C50.5936 112.841 58.7326 113.292 68.8876 110.346C75.6376 108.391 82.2936 104.458 82.2936 96.7207V86.5007H55.5126V83.0957H95.6996C103.493 83.0957 106.396 77.6597 109.106 69.5017C111.906 61.1027 111.786 53.0257 109.106 42.2517C107.181 34.4937 103.502 28.6577 95.6996 28.6577H85.6376ZM70.5746 93.3137C73.3546 93.3137 75.6056 95.5917 75.6056 98.4077C75.6056 101.235 73.3546 103.533 70.5746 103.533C67.8046 103.533 65.5436 101.235 65.5436 98.4077C65.5436 95.5917 67.8046 93.3137 70.5746 93.3137Z" fill="url(#paint1_linear_18_21)"/>
<defs>
<linearGradient id="paint0_linear_18_21" x1="-0.000274728" y1="0.00126743" x2="61.826" y2="52.6862" gradientUnits="userSpaceOnUse">
<stop stop-color="#5A9FD4"/>
<stop offset="1" stop-color="#306998"/>
</linearGradient>
<linearGradient id="paint1_linear_18_21" x1="69.9302" y1="97.5489" x2="47.749" y2="66.4665" gradientUnits="userSpaceOnUse">
<stop stop-color="#FFD43B"/>
<stop offset="1" stop-color="#FFE873"/>
</linearGradient>
</defs>
</svg>
