<svg width="150" height="150" viewBox="0 0 150 150" fill="none" xmlns="http://www.w3.org/2000/svg">
<rect width="150" height="150" rx="75" fill="white"/>
<path d="M100.63 21.6466C93.2093 18.1439 84.3844 16 76.0044 16C50.7104 16 35.5802 36.935 37.208 57.3993C37.9457 66.6554 42.4907 75.6108 50.0063 82.6142C52.6982 85.1362 55.7066 87.2976 58.9558 89.044C56.4975 86.1152 54.8735 82.5783 54.2546 78.805C52.5735 68.5204 59.3652 53.3922 76.7105 53.3922C95.3651 53.3922 115.903 71.1272 117.639 92.9343C118.701 106.275 113.644 118.284 105.094 126.674C122.777 116.403 134.668 97.2578 134.668 75.3339C134.668 51.6122 120.748 31.142 100.63 21.6466Z" fill="#0053D6"/>
<path d="M113.46 93.2686C112.722 84.0125 108.177 75.057 100.662 68.0537C97.9697 65.5316 94.9613 63.3702 91.7121 61.6238C94.1704 64.5526 95.7944 68.0896 96.4133 71.8629C98.0944 82.1474 91.3027 97.2756 73.9574 97.2756C55.3028 97.2756 34.7653 79.5407 33.0288 57.7315C31.9668 44.3913 37.024 32.3821 45.574 23.9923C27.8905 34.265 16 53.41 16 75.3339C16 99.0556 29.9197 119.526 50.0379 129.021C57.4586 132.524 66.2835 134.668 74.6635 134.668C99.9575 134.668 115.088 113.733 113.46 93.2686Z" fill="#0053D6"/>
</svg>
